<mxfile host="app.diagrams.net" modified="2024-01-31T15:43:14.196Z" agent="Mozilla/5.0 (Windows NT 10.0; Win64; x64) AppleWebKit/537.36 (KHTML, like Gecko) Chrome/120.0.0.0 Safari/537.36" etag="d-UaEjrQo34F7IRsEw0z" version="23.0.2" type="github">
  <diagram name="Page-1" id="8Us4WCK9ZZ0-0T4fawTz">
    <mxGraphModel dx="934" dy="540" grid="1" gridSize="10" guides="1" tooltips="1" connect="1" arrows="1" fold="1" page="1" pageScale="1" pageWidth="850" pageHeight="1100" math="0" shadow="0">
      <root>
        <mxCell id="0" />
        <mxCell id="1" parent="0" />
        <mxCell id="4HTuvO_Nm95UCKi2w5Rm-1" value="Start" style="ellipse;whiteSpace=wrap;html=1;fillColor=#d5e8d4;strokeColor=#82b366;" vertex="1" parent="1">
          <mxGeometry x="200" y="30" width="120" height="80" as="geometry" />
        </mxCell>
        <mxCell id="4HTuvO_Nm95UCKi2w5Rm-4" value="&lt;i&gt;Conv. Factor &lt;/i&gt;is 5/9" style="rounded=0;whiteSpace=wrap;html=1;" vertex="1" parent="1">
          <mxGeometry x="360" y="40" width="120" height="60" as="geometry" />
        </mxCell>
        <mxCell id="4HTuvO_Nm95UCKi2w5Rm-5" value="&lt;i&gt;Freezing Offset&lt;/i&gt;&amp;nbsp;is 32" style="rounded=0;whiteSpace=wrap;html=1;" vertex="1" parent="1">
          <mxGeometry x="520" y="40" width="120" height="60" as="geometry" />
        </mxCell>
        <mxCell id="4HTuvO_Nm95UCKi2w5Rm-7" value="Set &lt;i&gt;Degrees C &lt;/i&gt;to &lt;i&gt;Degrees F * Conv. Factor &lt;/i&gt;(30)" style="rounded=0;whiteSpace=wrap;html=1;" vertex="1" parent="1">
          <mxGeometry x="360" y="160" width="120" height="60" as="geometry" />
        </mxCell>
        <mxCell id="4HTuvO_Nm95UCKi2w5Rm-8" value="Subtract&amp;nbsp;&lt;i&gt;Freezing Offset &lt;/i&gt;from &lt;i&gt;Degrees F &lt;/i&gt;(54)" style="rounded=0;whiteSpace=wrap;html=1;" vertex="1" parent="1">
          <mxGeometry x="200" y="160" width="120" height="60" as="geometry" />
        </mxCell>
        <mxCell id="4HTuvO_Nm95UCKi2w5Rm-9" value="Stop" style="ellipse;whiteSpace=wrap;html=1;fillColor=#f8cecc;strokeColor=#b85450;" vertex="1" parent="1">
          <mxGeometry x="520" y="150" width="120" height="80" as="geometry" />
        </mxCell>
        <mxCell id="4HTuvO_Nm95UCKi2w5Rm-10" value="" style="curved=1;endArrow=classic;html=1;rounded=0;" edge="1" parent="1">
          <mxGeometry width="50" height="50" relative="1" as="geometry">
            <mxPoint x="650" y="70" as="sourcePoint" />
            <mxPoint x="190" y="190" as="targetPoint" />
            <Array as="points">
              <mxPoint x="700" y="160" />
              <mxPoint x="120" y="120" />
            </Array>
          </mxGeometry>
        </mxCell>
        <mxCell id="4HTuvO_Nm95UCKi2w5Rm-11" value="" style="endArrow=classic;html=1;rounded=0;" edge="1" parent="1">
          <mxGeometry width="50" height="50" relative="1" as="geometry">
            <mxPoint x="330" y="70" as="sourcePoint" />
            <mxPoint x="350" y="70" as="targetPoint" />
          </mxGeometry>
        </mxCell>
        <mxCell id="4HTuvO_Nm95UCKi2w5Rm-12" value="" style="endArrow=classic;html=1;rounded=0;" edge="1" parent="1">
          <mxGeometry width="50" height="50" relative="1" as="geometry">
            <mxPoint x="490" y="69.73000000000002" as="sourcePoint" />
            <mxPoint x="510" y="69.73000000000002" as="targetPoint" />
          </mxGeometry>
        </mxCell>
        <mxCell id="4HTuvO_Nm95UCKi2w5Rm-13" value="" style="endArrow=classic;html=1;rounded=0;" edge="1" parent="1">
          <mxGeometry width="50" height="50" relative="1" as="geometry">
            <mxPoint x="330" y="189.73000000000002" as="sourcePoint" />
            <mxPoint x="350" y="189.73000000000002" as="targetPoint" />
          </mxGeometry>
        </mxCell>
        <mxCell id="4HTuvO_Nm95UCKi2w5Rm-15" value="" style="endArrow=classic;html=1;rounded=0;" edge="1" parent="1">
          <mxGeometry width="50" height="50" relative="1" as="geometry">
            <mxPoint x="490" y="189.73000000000002" as="sourcePoint" />
            <mxPoint x="510" y="189.73000000000002" as="targetPoint" />
          </mxGeometry>
        </mxCell>
        <mxCell id="4HTuvO_Nm95UCKi2w5Rm-17" value="&lt;i&gt;Degrees F&lt;/i&gt;" style="shape=parallelogram;perimeter=parallelogramPerimeter;whiteSpace=wrap;html=1;fixedSize=1;" vertex="1" parent="1">
          <mxGeometry x="40" y="40" width="120" height="60" as="geometry" />
        </mxCell>
        <mxCell id="4HTuvO_Nm95UCKi2w5Rm-18" value="&lt;i style=&quot;border-color: var(--border-color);&quot;&gt;Degrees C&lt;/i&gt;" style="shape=parallelogram;perimeter=parallelogramPerimeter;whiteSpace=wrap;html=1;fixedSize=1;" vertex="1" parent="1">
          <mxGeometry x="680" y="160" width="120" height="60" as="geometry" />
        </mxCell>
        <mxCell id="4HTuvO_Nm95UCKi2w5Rm-19" value="" style="endArrow=classic;html=1;rounded=0;" edge="1" parent="1">
          <mxGeometry width="50" height="50" relative="1" as="geometry">
            <mxPoint x="170" y="69.41" as="sourcePoint" />
            <mxPoint x="190" y="69.41" as="targetPoint" />
          </mxGeometry>
        </mxCell>
        <mxCell id="4HTuvO_Nm95UCKi2w5Rm-20" value="" style="endArrow=classic;html=1;rounded=0;" edge="1" parent="1">
          <mxGeometry width="50" height="50" relative="1" as="geometry">
            <mxPoint x="650" y="189.40999999999997" as="sourcePoint" />
            <mxPoint x="670" y="189.40999999999997" as="targetPoint" />
          </mxGeometry>
        </mxCell>
      </root>
    </mxGraphModel>
  </diagram>
</mxfile>
